<svg xmlns="http://www.w3.org/2000/svg" viewBox="0 0 64 64" width="64" height="64">
  <rect width="64" height="64" rx="14" fill="#059669" />
  <path
    fill="#ffffff"
    d="M32 14c-9.94 0-18 7.61-18 17 0 3.32 1.02 6.41 2.78 9.02L15 50l10.3-2.66A19.6 19.6 0 0 0 32 48c9.94 0 18-7.61 18-17s-8.06-17-18-17Zm0 30.4c-2.05 0-4-.37-5.8-1.05l-.41-.16-4.6 1.19 1.22-4.34-.27-.43A12.6 12.6 0 0 1 19.6 31c0-7.06 5.56-12.6 12.4-12.6S44.4 23.94 44.4 31 38.84 44.4 32 44.4Z"
  />
  <path
    fill="#ffffff"
    d="M39.1 34.3c-.39-.2-2.3-1.13-2.66-1.26-.36-.13-.62-.2-.88.2-.26.39-1.01 1.26-1.24 1.52-.23.26-.46.29-.85.1-.39-.2-1.64-.6-3.13-1.92-1.16-1.03-1.94-2.31-2.17-2.7-.23-.39-.02-.6.17-.8.18-.17.39-.46.59-.69.2-.23.26-.39.39-.65.13-.26.07-.49-.03-.69-.1-.2-.88-2.11-1.2-2.89-.32-.76-.64-.66-.88-.67h-.75c-.26 0-.69.1-1.05.49-.36.39-1.38 1.35-1.38 3.29 0 1.94 1.41 3.81 1.61 4.07.2.26 2.78 4.24 6.73 5.95.94.41 1.67.65 2.24.83.94.3 1.8.26 2.48.16.76-.11 2.3-.94 2.62-1.85.32-.91.32-1.69.23-1.85-.1-.16-.36-.26-.75-.46Z"
  />
</svg>
